<?xml version="1.0" encoding="UTF-8" standalone="no"?>
<svg xmlns="http://www.w3.org/2000/svg" width="32" height="32" viewBox="0 0 32 32">
    <defs>
        <linearGradient id="bookGradient" x1="0%" y1="0%" x2="100%" y2="100%">
            <stop offset="0%" style="stop-color:#5E35B1;stop-opacity:1" />
            <stop offset="100%" style="stop-color:#3949AB;stop-opacity:1" />
        </linearGradient>
        <filter id="glow" x="-20%" y="-20%" width="140%" height="140%">
            <feGaussianBlur stdDeviation="0.5" result="blur" />
            <feComposite in="SourceGraphic" in2="blur" operator="over" />
        </filter>
        <filter id="textGlow" x="-20%" y="-20%" width="140%" height="140%">
            <feGaussianBlur stdDeviation="0.3" result="blur" />
            <feComposite in="SourceGraphic" in2="blur" operator="over" />
        </filter>
    </defs>

    <circle cx="16" cy="16" r="15" fill="#f8f9fa" opacity="0.5" />

    <path d="M8 8 L24 8 L24 24 L8 24 Z" fill="none" stroke="url(#bookGradient)" stroke-width="1" />

    <path d="M16 10 L16 22 M16 10 L12 14 M16 10 L20 14 M12 14 L10 18 M20 14 L22 18" fill="none" stroke="#5E35B1"
        stroke-width="0.75" stroke-linecap="round" />

    <path d="M12 18 Q16 16 20 18 Q22 20 16 22 Q10 20 12 18" fill="url(#bookGradient)" opacity="0.9" />

    <circle cx="16" cy="10" r="0.75" fill="#5E35B1" filter="url(#glow)" />
    <circle cx="12" cy="14" r="0.75" fill="#5E35B1" filter="url(#glow)" />
    <circle cx="20" cy="14" r="0.75" fill="#5E35B1" filter="url(#glow)" />
    <circle cx="10" cy="18" r="0.75" fill="#5E35B1" filter="url(#glow)" />
    <circle cx="22" cy="18" r="0.75" fill="#5E35B1" filter="url(#glow)" />

    <path d="M9 9 L23 9" stroke="url(#bookGradient)" stroke-width="0.5" opacity="0.4" />
    <path d="M9 23 L23 23" stroke="url(#bookGradient)" stroke-width="0.5" opacity="0.4" />

    <!-- Creative SM Design -->
    <g transform="translate(16, 18) scale(0.25)">
        <!-- S -->
        <path d="M-20 0 C-20 -15, 0 -20, 0 -10 C0 0, -20 5, -20 20 C-20 35, 0 40, 0 30" fill="none"
            stroke="url(#bookGradient)" stroke-width="2" stroke-linecap="round" filter="url(#textGlow)" />
        <!-- M -->
        <path d="M10 20 L10 -20 M10 -20 L20 0 M20 0 L30 -20 M30 -20 L30 20" fill="none" stroke="url(#bookGradient)"
            stroke-width="2" stroke-linecap="round" filter="url(#textGlow)" />
    </g>
</svg>