<?xml version="1.0" encoding="UTF-8"?>
<svg width="200" height="200" viewBox="0 0 200 200" xmlns="http://www.w3.org/2000/svg">
    <defs>
        <linearGradient id="bookGradient" x1="0%" y1="0%" x2="100%" y2="100%">
            <stop offset="0%" style="stop-color:#5E35B1;stop-opacity:1" />
            <stop offset="100%" style="stop-color:#3949AB;stop-opacity:1" />
        </linearGradient>
        <filter id="glow" x="-20%" y="-20%" width="140%" height="140%">
            <feGaussianBlur stdDeviation="1.5" result="blur" />
            <feComposite in="SourceGraphic" in2="blur" operator="over" />
        </filter>
        <filter id="textGlow" x="-20%" y="-20%" width="140%" height="140%">
            <feGaussianBlur stdDeviation="0.5" result="blur" />
            <feComposite in="SourceGraphic" in2="blur" operator="over" />
        </filter>
    </defs>

    <circle cx="100" cy="100" r="90" fill="#f8f9fa" opacity="0.5" />

    <path d="M40 30 L160 30 L160 170 L40 170 Z" fill="none" stroke="url(#bookGradient)" stroke-width="3" />

    <path d="M100 40 L100 160 M100 40 L70 70 M100 40 L130 70 M70 70 L50 100 M130 70 L150 100" fill="none"
        stroke="#5E35B1" stroke-width="2" stroke-linecap="round" />

    <path d="M90 120 Q100 110 110 120 Q120 130 100 140 Q80 130 90 120" fill="url(#bookGradient)" opacity="0.9" />

    <circle cx="100" cy="40" r="2.5" fill="#5E35B1" filter="url(#glow)" />
    <circle cx="70" cy="70" r="2.5" fill="#5E35B1" filter="url(#glow)" />
    <circle cx="130" cy="70" r="2.5" fill="#5E35B1" filter="url(#glow)" />
    <circle cx="50" cy="100" r="2.5" fill="#5E35B1" filter="url(#glow)" />
    <circle cx="150" cy="100" r="2.5" fill="#5E35B1" filter="url(#glow)" />

    <path d="M45 45 L155 45" stroke="url(#bookGradient)" stroke-width="1" opacity="0.4" />
    <path d="M45 155 L155 155" stroke="url(#bookGradient)" stroke-width="1" opacity="0.4" />

    <!-- Creative SM Design -->
    <g transform="translate(100, 110) scale(0.8)">
        <!-- S -->
        <path d="M-20 0 C-20 -15, 0 -20, 0 -10 C0 0, -20 5, -20 20 C-20 35, 0 40, 0 30" fill="none"
            stroke="url(#bookGradient)" stroke-width="2.5" stroke-linecap="round" filter="url(#textGlow)" />
        <!-- M -->
        <path d="M10 20 L10 -20 M10 -20 L20 0 M20 0 L30 -20 M30 -20 L30 20" fill="none" stroke="url(#bookGradient)"
            stroke-width="2.5" stroke-linecap="round" filter="url(#textGlow)" />
    </g>
</svg>